<svg width="202" height="113" viewBox="0 0 202 113" fill="none" xmlns="http://www.w3.org/2000/svg">
<g filter="url(#filter0_df_3_9)">
<path d="M18.52 9.952C21.4213 7.60533 23.448 6.432 24.6 6.432C25.7947 6.432 27.672 7.56267 30.232 9.824C32.8347 12.0427 34.456 13.6213 35.096 14.56C35.736 15.456 36.056 16.9493 36.056 19.04C36.056 21.1307 35.736 22.7093 35.096 23.776C34.456 24.8 33.2827 26.1227 31.576 27.744C34.264 29.9627 36.1627 31.8187 37.272 33.312C37.7413 34.08 37.976 35.5307 37.976 37.664C37.976 39.7547 37.7413 41.12 37.272 41.76C36.504 43.424 34.648 45.5573 31.704 48.16C28.76 50.72 26.4347 52 24.728 52H11.48V24.608C11.48 21.152 11.224 18.72 10.712 17.312C10.2427 15.904 9.21867 14.24 7.64 12.32L16.088 6.432C17.112 7.28533 17.9227 8.45867 18.52 9.952ZM20.312 32.544V44.256H24.728C25.2827 44.256 25.9653 43.8293 26.776 42.976C27.5867 42.08 28.1627 41.312 28.504 40.672C28.888 39.9893 29.08 38.624 29.08 36.576C29.08 35.168 28.0133 33.824 25.88 32.544H20.312ZM20.312 20.896V25.44H23.576C24.0453 25.44 24.6213 25.0347 25.304 24.224C26.0293 23.3707 26.52 22.624 26.776 21.984C27.032 21.344 27.16 20.576 27.16 19.68C27.16 18.784 26.7333 17.7813 25.88 16.672C25.0267 15.52 24.2373 14.944 23.512 14.944C22.7867 14.944 21.656 15.2213 20.12 15.776C20.248 17.44 20.312 19.1467 20.312 20.896ZM53.4755 44.448C54.1582 45.088 54.6915 45.408 55.0755 45.408C55.4595 45.408 55.9715 45.088 56.6115 44.448C57.2942 43.808 57.7848 43.232 58.0835 42.72C58.6382 41.7813 58.9155 39.136 58.9155 34.784C58.9155 30.432 58.6382 27.7653 58.0835 26.784C57.7848 26.272 57.2942 25.696 56.6115 25.056C55.9715 24.416 55.4595 24.096 55.0755 24.096C54.6915 24.096 54.1582 24.416 53.4755 25.056C52.8355 25.696 52.3662 26.272 52.0675 26.784C51.5128 27.7227 51.2355 30.368 51.2355 34.72C51.2355 39.072 51.5128 41.7387 52.0675 42.72C52.3662 43.232 52.8355 43.808 53.4755 44.448ZM60.8355 49.632C58.2328 51.7227 56.3128 52.768 55.0755 52.768C53.8382 52.768 51.8968 51.7227 49.2515 49.632C46.6488 47.5413 45.0488 45.984 44.4515 44.96C43.5555 43.3813 43.1075 39.968 43.1075 34.72C43.1075 29.472 43.5555 26.08 44.4515 24.544C45.0488 23.52 46.6488 21.9627 49.2515 19.872C51.8968 17.7813 53.8382 16.736 55.0755 16.736C56.3128 16.736 58.2328 17.7813 60.8355 19.872C63.4808 21.9627 65.1022 23.52 65.6995 24.544C66.5955 26.08 67.0435 29.472 67.0435 34.72C67.0435 39.968 66.5955 43.3813 65.6995 44.96C65.1022 45.984 63.4808 47.5413 60.8355 49.632ZM81.2255 44.448C81.9082 45.088 82.4415 45.408 82.8255 45.408C83.2095 45.408 83.7215 45.088 84.3615 44.448C85.0442 43.808 85.5348 43.232 85.8335 42.72C86.3882 41.7813 86.6655 39.136 86.6655 34.784C86.6655 30.432 86.3882 27.7653 85.8335 26.784C85.5348 26.272 85.0442 25.696 84.3615 25.056C83.7215 24.416 83.2095 24.096 82.8255 24.096C82.4415 24.096 81.9082 24.416 81.2255 25.056C80.5855 25.696 80.1162 26.272 79.8175 26.784C79.2628 27.7227 78.9855 30.368 78.9855 34.72C78.9855 39.072 79.2628 41.7387 79.8175 42.72C80.1162 43.232 80.5855 43.808 81.2255 44.448ZM88.5855 49.632C85.9828 51.7227 84.0628 52.768 82.8255 52.768C81.5882 52.768 79.6468 51.7227 77.0015 49.632C74.3988 47.5413 72.7988 45.984 72.2015 44.96C71.3055 43.3813 70.8575 39.968 70.8575 34.72C70.8575 29.472 71.3055 26.08 72.2015 24.544C72.7988 23.52 74.3988 21.9627 77.0015 19.872C79.6468 17.7813 81.5882 16.736 82.8255 16.736C84.0628 16.736 85.9828 17.7813 88.5855 19.872C91.2308 21.9627 92.8522 23.52 93.4495 24.544C94.3455 26.08 94.7935 29.472 94.7935 34.72C94.7935 39.968 94.3455 43.3813 93.4495 44.96C92.8522 45.984 91.2308 47.5413 88.5855 49.632ZM109.296 52H100.848V17.056C100.848 14.88 100.592 13.216 100.08 12.064C99.5675 10.912 98.7568 9.86666 97.6475 8.928L104.688 4C107.76 6.432 109.296 9.86666 109.296 14.304V21.6C112.624 18.3573 114.842 16.736 115.952 16.736C117.061 16.736 119.024 17.952 121.84 20.384C124.656 22.816 126.106 24.7147 126.192 26.08C126.192 27.0613 125.509 28.7253 124.144 31.072C122.821 33.4187 121.541 35.2107 120.304 36.448C123.418 40.288 125.402 43.8507 126.256 47.136L118.192 52.768C117.21 49.312 116.186 46.4533 115.12 44.192C114.053 41.888 112.56 39.7333 110.64 37.728V35.488C111.962 34.5493 113.37 33.184 114.864 31.392C116.357 29.5573 117.21 28.1493 117.424 27.168C116.229 25.5467 115.205 24.736 114.352 24.736C113.882 24.736 113.093 25.2053 111.984 26.144C110.917 27.04 110.021 27.8933 109.296 28.704V52ZM157.163 44.448C157.846 45.088 158.379 45.408 158.763 45.408C159.147 45.408 159.659 45.088 160.299 44.448C160.982 43.808 161.472 43.232 161.771 42.72C162.326 41.7813 162.603 39.136 162.603 34.784C162.603 30.432 162.326 27.7653 161.771 26.784C161.472 26.272 160.982 25.696 160.299 25.056C159.659 24.416 159.147 24.096 158.763 24.096C158.379 24.096 157.846 24.416 157.163 25.056C156.523 25.696 156.054 26.272 155.755 26.784C155.2 27.7227 154.923 30.368 154.923 34.72C154.923 39.072 155.2 41.7387 155.755 42.72C156.054 43.232 156.523 43.808 157.163 44.448ZM164.523 49.632C161.92 51.7227 160 52.768 158.763 52.768C157.526 52.768 155.584 51.7227 152.939 49.632C150.336 47.5413 148.736 45.984 148.139 44.96C147.243 43.3813 146.795 39.968 146.795 34.72C146.795 29.472 147.243 26.08 148.139 24.544C148.736 23.52 150.336 21.9627 152.939 19.872C155.584 17.7813 157.526 16.736 158.763 16.736C160 16.736 161.92 17.7813 164.523 19.872C167.168 21.9627 168.79 23.52 169.387 24.544C170.283 26.08 170.731 29.472 170.731 34.72C170.731 39.968 170.283 43.3813 169.387 44.96C168.79 45.984 167.168 47.5413 164.523 49.632ZM173.585 26.72V21.92L176.785 21.152C176.785 16.3733 177.02 13.4507 177.489 12.384C177.958 11.3173 179.58 9.65333 182.353 7.392C185.126 5.13066 187.153 4 188.433 4C189.756 4 191.398 4.61866 193.361 5.856C195.324 7.05067 196.796 8.43733 197.777 10.016L191.505 14.24C190.31 12.32 189.286 11.36 188.433 11.36C188.006 11.36 187.516 11.6373 186.961 12.192C186.406 12.7467 185.98 13.3227 185.681 13.92C185.382 14.5173 185.233 16.544 185.233 20H194.321V26.72H185.233V52H176.785V26.72H173.585ZM34.392 85.952C34.8613 86.72 35.096 88.256 35.096 90.56C35.096 92.8213 34.6267 94.7413 33.688 96.32C32.8347 97.5573 31.0213 99.2853 28.248 101.504C25.4747 103.68 23.4267 104.768 22.104 104.768C19.7573 104.768 17.0693 103.552 14.04 101.12C11.0107 98.6453 9.09067 95.936 8.28 92.992L15.384 88.128C16.0667 90.1333 17.1547 91.968 18.648 93.632C20.1413 95.296 21.1867 96.128 21.784 96.128C22.424 96.128 23.0853 95.936 23.768 95.552C24.4933 95.1253 25.048 94.6987 25.432 94.272C25.9867 93.5893 26.264 92.5227 26.264 91.072C26.264 89.6213 25.9227 88.7253 25.24 88.384C24.3867 87.6587 22.7227 86.6987 20.248 85.504C17.816 84.3093 15.5547 83.0293 13.464 81.664C11.3733 80.256 10.0293 78.8907 9.432 77.568C8.87733 76.2453 8.6 74.5387 8.6 72.448C8.6 70.3147 9.06933 68.4587 10.008 66.88C10.8613 65.6427 12.6747 63.936 15.448 61.76C18.2213 59.5413 20.2693 58.432 21.592 58.432C23.9387 58.432 26.6267 59.6693 29.656 62.144C32.6853 64.576 34.6053 67.264 35.416 70.208L28.312 75.136C27.6293 73.1307 26.5413 71.296 25.048 69.632C23.5547 67.9253 22.488 67.072 21.848 67.072C21.2507 67.072 20.5893 67.264 19.864 67.648C19.1387 68.032 18.5413 68.5227 18.072 69.12C17.6453 69.6747 17.432 70.656 17.432 72.064C17.432 73.4293 17.8587 74.3467 18.712 74.816C19.3947 75.4133 20.952 76.352 23.384 77.632C29.6133 81.0453 33.2827 83.8187 34.392 85.952ZM49.2955 104H40.8475V69.056C40.8475 66.88 40.5915 65.216 40.0795 64.064C39.5675 62.912 38.7568 61.8667 37.6475 60.928L44.6875 56C47.7595 58.432 49.2955 61.8667 49.2955 66.304V72.256C51.9408 69.9093 53.8608 68.736 55.0555 68.736C56.2502 68.736 58.1488 69.9307 60.7515 72.32C63.3968 74.6667 64.7195 76.992 64.7195 79.296V91.648C64.7195 93.824 64.9755 95.5093 65.4875 96.704C65.9995 97.8987 66.8102 98.944 67.9195 99.84L60.8795 104.768C57.8075 102.336 56.2715 98.88 56.2715 94.4V80.192C56.2715 79.4667 55.8875 78.72 55.1195 77.952C54.3515 77.1413 53.6262 76.736 52.9435 76.736C52.3035 76.736 51.0875 77.632 49.2955 79.424V104ZM95.115 69.504V95.744C95.371 97.2373 96.3737 98.56 98.123 99.712L92.363 104.64C91.8083 104.256 91.1257 103.573 90.315 102.592C89.5043 101.611 88.8217 100.608 88.267 99.584C84.7257 103.04 82.251 104.768 80.843 104.768C79.819 104.768 78.155 103.637 75.851 101.376C73.5897 99.1147 72.1817 97.28 71.627 95.872C71.0723 94.464 70.795 91.4347 70.795 86.784C70.795 82.0907 71.0723 79.04 71.627 77.632C72.1817 76.224 73.5897 74.3893 75.851 72.128C78.155 69.8667 79.819 68.736 80.843 68.736C82.3363 68.736 84.747 70.272 88.075 73.344L88.843 69.504H95.115ZM86.219 79.296C85.9203 78.7413 85.3017 78.1867 84.363 77.632C83.467 77.0347 82.7843 76.736 82.315 76.736C81.8457 76.736 81.3337 77.0133 80.779 77.568C80.267 78.1227 79.9257 78.6347 79.755 79.104C79.2003 79.872 78.923 82.432 78.923 86.784C78.923 91.0933 79.2003 93.632 79.755 94.4C79.9257 94.8267 80.267 95.3387 80.779 95.936C81.3337 96.4907 81.8457 96.768 82.315 96.768C82.7843 96.768 83.467 96.4907 84.363 95.936C85.3017 95.3387 85.899 94.8053 86.155 94.336C86.4537 93.8667 86.6243 91.3707 86.667 86.848C86.667 82.3253 86.5177 79.808 86.219 79.296ZM101.687 77.184C102.028 76.1173 103.351 74.4533 105.655 72.192C108.001 69.888 109.729 68.736 110.839 68.736C111.948 68.736 113.847 69.888 116.535 72.192V69.056C116.535 66.88 116.279 65.216 115.767 64.064C115.255 62.912 114.444 61.8667 113.335 60.928L120.375 56C123.447 58.432 124.983 61.8667 124.983 66.304V104H118.455L117.687 100.224C114.572 103.253 112.247 104.768 110.711 104.768C109.687 104.768 108.001 103.637 105.655 101.376C103.351 99.072 102.028 97.3867 101.687 96.32C101.217 95.2533 100.983 92.0747 100.983 86.784C100.983 81.4507 101.217 78.2507 101.687 77.184ZM116.087 79.296C115.788 78.7413 115.169 78.1867 114.231 77.632C113.335 77.0347 112.652 76.736 112.183 76.736C111.713 76.736 111.201 77.0133 110.647 77.568C110.135 78.1227 109.751 78.6987 109.495 79.296C109.239 79.8933 109.111 82.3893 109.111 86.784C109.111 91.136 109.239 93.6107 109.495 94.208C109.751 94.7627 110.135 95.3387 110.647 95.936C111.201 96.4907 111.692 96.768 112.119 96.768C112.588 96.768 113.271 96.4907 114.167 95.936C115.105 95.3387 115.724 94.8267 116.023 94.4C116.279 93.8027 116.449 92.0747 116.535 89.216V86.848C116.535 82.3253 116.385 79.808 116.087 79.296ZM139.163 96.448C139.846 97.088 140.379 97.408 140.763 97.408C141.147 97.408 141.659 97.088 142.299 96.448C142.982 95.808 143.472 95.232 143.771 94.72C144.326 93.7813 144.603 91.136 144.603 86.784C144.603 82.432 144.326 79.7653 143.771 78.784C143.472 78.272 142.982 77.696 142.299 77.056C141.659 76.416 141.147 76.096 140.763 76.096C140.379 76.096 139.846 76.416 139.163 77.056C138.523 77.696 138.054 78.272 137.755 78.784C137.2 79.7227 136.923 82.368 136.923 86.72C136.923 91.072 137.2 93.7387 137.755 94.72C138.054 95.232 138.523 95.808 139.163 96.448ZM146.523 101.632C143.92 103.723 142 104.768 140.763 104.768C139.526 104.768 137.584 103.723 134.939 101.632C132.336 99.5413 130.736 97.984 130.139 96.96C129.243 95.3813 128.795 91.968 128.795 86.72C128.795 81.472 129.243 78.08 130.139 76.544C130.736 75.52 132.336 73.9627 134.939 71.872C137.584 69.7813 139.526 68.736 140.763 68.736C142 68.736 143.92 69.7813 146.523 71.872C149.168 73.9627 150.79 75.52 151.387 76.544C152.283 78.08 152.731 81.472 152.731 86.72C152.731 91.968 152.283 95.3813 151.387 96.96C150.79 97.984 149.168 99.5413 146.523 101.632ZM195.201 79.104V84.608C195.201 89.728 194.924 92.9067 194.369 94.144C193.857 95.3813 192.236 97.472 189.505 100.416C186.774 103.317 184.769 104.768 183.489 104.768C181.953 104.768 179.457 102.357 176.001 97.536C172.545 102.357 170.049 104.768 168.513 104.768C167.233 104.768 165.206 103.296 162.433 100.352C159.702 97.408 158.081 95.2747 157.569 93.952C157.057 92.6293 156.801 89.5147 156.801 84.608V69.504H165.249V84.608C165.249 89.088 165.398 91.7333 165.697 92.544C165.996 93.3547 166.444 94.1653 167.041 94.976C167.638 95.744 168.129 96.128 168.513 96.128C168.897 96.128 169.366 95.744 169.921 94.976C170.518 94.1653 170.966 93.376 171.265 92.608C171.606 91.84 171.777 89.9413 171.777 86.912V69.504H180.225V84.608C180.225 89.088 180.374 91.7333 180.673 92.544C180.972 93.3547 181.42 94.1653 182.017 94.976C182.614 95.744 183.105 96.128 183.489 96.128C183.873 96.128 184.342 95.744 184.897 94.976C185.494 94.1653 185.942 93.376 186.241 92.608C186.582 91.84 186.753 89.1733 186.753 84.608V81.856C186.753 78.1867 185.9 75.456 184.193 73.664L190.593 68.736C193.665 71.168 195.201 74.624 195.201 79.104Z" fill="#6366F1"/>
</g>
<g filter="url(#filter1_d_3_9)">
<path d="M15.52 5.952C18.4213 3.60533 20.448 2.432 21.6 2.432C22.7947 2.432 24.672 3.56267 27.232 5.824C29.8347 8.04266 31.456 9.62133 32.096 10.56C32.736 11.456 33.056 12.9493 33.056 15.04C33.056 17.1307 32.736 18.7093 32.096 19.776C31.456 20.8 30.2827 22.1227 28.576 23.744C31.264 25.9627 33.1627 27.8187 34.272 29.312C34.7413 30.08 34.976 31.5307 34.976 33.664C34.976 35.7547 34.7413 37.12 34.272 37.76C33.504 39.424 31.648 41.5573 28.704 44.16C25.76 46.72 23.4347 48 21.728 48H8.48V20.608C8.48 17.152 8.224 14.72 7.712 13.312C7.24267 11.904 6.21867 10.24 4.64 8.32L13.088 2.432C14.112 3.28533 14.9227 4.45867 15.52 5.952ZM17.312 28.544V40.256H21.728C22.2827 40.256 22.9653 39.8293 23.776 38.976C24.5867 38.08 25.1627 37.312 25.504 36.672C25.888 35.9893 26.08 34.624 26.08 32.576C26.08 31.168 25.0133 29.824 22.88 28.544H17.312ZM17.312 16.896V21.44H20.576C21.0453 21.44 21.6213 21.0347 22.304 20.224C23.0293 19.3707 23.52 18.624 23.776 17.984C24.032 17.344 24.16 16.576 24.16 15.68C24.16 14.784 23.7333 13.7813 22.88 12.672C22.0267 11.52 21.2373 10.944 20.512 10.944C19.7867 10.944 18.656 11.2213 17.12 11.776C17.248 13.44 17.312 15.1467 17.312 16.896ZM50.4755 40.448C51.1582 41.088 51.6915 41.408 52.0755 41.408C52.4595 41.408 52.9715 41.088 53.6115 40.448C54.2942 39.808 54.7848 39.232 55.0835 38.72C55.6382 37.7813 55.9155 35.136 55.9155 30.784C55.9155 26.432 55.6382 23.7653 55.0835 22.784C54.7848 22.272 54.2942 21.696 53.6115 21.056C52.9715 20.416 52.4595 20.096 52.0755 20.096C51.6915 20.096 51.1582 20.416 50.4755 21.056C49.8355 21.696 49.3662 22.272 49.0675 22.784C48.5128 23.7227 48.2355 26.368 48.2355 30.72C48.2355 35.072 48.5128 37.7387 49.0675 38.72C49.3662 39.232 49.8355 39.808 50.4755 40.448ZM57.8355 45.632C55.2328 47.7227 53.3128 48.768 52.0755 48.768C50.8382 48.768 48.8968 47.7227 46.2515 45.632C43.6488 43.5413 42.0488 41.984 41.4515 40.96C40.5555 39.3813 40.1075 35.968 40.1075 30.72C40.1075 25.472 40.5555 22.08 41.4515 20.544C42.0488 19.52 43.6488 17.9627 46.2515 15.872C48.8968 13.7813 50.8382 12.736 52.0755 12.736C53.3128 12.736 55.2328 13.7813 57.8355 15.872C60.4808 17.9627 62.1022 19.52 62.6995 20.544C63.5955 22.08 64.0435 25.472 64.0435 30.72C64.0435 35.968 63.5955 39.3813 62.6995 40.96C62.1022 41.984 60.4808 43.5413 57.8355 45.632ZM78.2255 40.448C78.9082 41.088 79.4415 41.408 79.8255 41.408C80.2095 41.408 80.7215 41.088 81.3615 40.448C82.0442 39.808 82.5348 39.232 82.8335 38.72C83.3882 37.7813 83.6655 35.136 83.6655 30.784C83.6655 26.432 83.3882 23.7653 82.8335 22.784C82.5348 22.272 82.0442 21.696 81.3615 21.056C80.7215 20.416 80.2095 20.096 79.8255 20.096C79.4415 20.096 78.9082 20.416 78.2255 21.056C77.5855 21.696 77.1162 22.272 76.8175 22.784C76.2628 23.7227 75.9855 26.368 75.9855 30.72C75.9855 35.072 76.2628 37.7387 76.8175 38.72C77.1162 39.232 77.5855 39.808 78.2255 40.448ZM85.5855 45.632C82.9828 47.7227 81.0628 48.768 79.8255 48.768C78.5882 48.768 76.6468 47.7227 74.0015 45.632C71.3988 43.5413 69.7988 41.984 69.2015 40.96C68.3055 39.3813 67.8575 35.968 67.8575 30.72C67.8575 25.472 68.3055 22.08 69.2015 20.544C69.7988 19.52 71.3988 17.9627 74.0015 15.872C76.6468 13.7813 78.5882 12.736 79.8255 12.736C81.0628 12.736 82.9828 13.7813 85.5855 15.872C88.2308 17.9627 89.8522 19.52 90.4495 20.544C91.3455 22.08 91.7935 25.472 91.7935 30.72C91.7935 35.968 91.3455 39.3813 90.4495 40.96C89.8522 41.984 88.2308 43.5413 85.5855 45.632ZM106.296 48H97.8475V13.056C97.8475 10.88 97.5915 9.216 97.0795 8.064C96.5675 6.912 95.7568 5.86666 94.6475 4.928L101.688 -3.8147e-06C104.76 2.432 106.296 5.86666 106.296 10.304V17.6C109.624 14.3573 111.842 12.736 112.952 12.736C114.061 12.736 116.024 13.952 118.84 16.384C121.656 18.816 123.106 20.7147 123.192 22.08C123.192 23.0613 122.509 24.7253 121.144 27.072C119.821 29.4187 118.541 31.2107 117.304 32.448C120.418 36.288 122.402 39.8507 123.256 43.136L115.192 48.768C114.21 45.312 113.186 42.4533 112.12 40.192C111.053 37.888 109.56 35.7333 107.64 33.728V31.488C108.962 30.5493 110.37 29.184 111.864 27.392C113.357 25.5573 114.21 24.1493 114.424 23.168C113.229 21.5467 112.205 20.736 111.352 20.736C110.882 20.736 110.093 21.2053 108.984 22.144C107.917 23.04 107.021 23.8933 106.296 24.704V48ZM31.392 81.952C31.8613 82.72 32.096 84.256 32.096 86.56C32.096 88.8213 31.6267 90.7413 30.688 92.32C29.8347 93.5573 28.0213 95.2853 25.248 97.504C22.4747 99.68 20.4267 100.768 19.104 100.768C16.7573 100.768 14.0693 99.552 11.04 97.12C8.01067 94.6453 6.09067 91.936 5.28 88.992L12.384 84.128C13.0667 86.1333 14.1547 87.968 15.648 89.632C17.1413 91.296 18.1867 92.128 18.784 92.128C19.424 92.128 20.0853 91.936 20.768 91.552C21.4933 91.1253 22.048 90.6987 22.432 90.272C22.9867 89.5893 23.264 88.5227 23.264 87.072C23.264 85.6213 22.9227 84.7253 22.24 84.384C21.3867 83.6587 19.7227 82.6987 17.248 81.504C14.816 80.3093 12.5547 79.0293 10.464 77.664C8.37333 76.256 7.02933 74.8907 6.432 73.568C5.87733 72.2453 5.6 70.5387 5.6 68.448C5.6 66.3147 6.06933 64.4587 7.008 62.88C7.86133 61.6427 9.67467 59.936 12.448 57.76C15.2213 55.5413 17.2693 54.432 18.592 54.432C20.9387 54.432 23.6267 55.6693 26.656 58.144C29.6853 60.576 31.6053 63.264 32.416 66.208L25.312 71.136C24.6293 69.1307 23.5413 67.296 22.048 65.632C20.5547 63.9253 19.488 63.072 18.848 63.072C18.2507 63.072 17.5893 63.264 16.864 63.648C16.1387 64.032 15.5413 64.5227 15.072 65.12C14.6453 65.6747 14.432 66.656 14.432 68.064C14.432 69.4293 14.8587 70.3467 15.712 70.816C16.3947 71.4133 17.952 72.352 20.384 73.632C26.6133 77.0453 30.2827 79.8187 31.392 81.952ZM46.2955 100H37.8475V65.056C37.8475 62.88 37.5915 61.216 37.0795 60.064C36.5675 58.912 35.7568 57.8667 34.6475 56.928L41.6875 52C44.7595 54.432 46.2955 57.8667 46.2955 62.304V68.256C48.9408 65.9093 50.8608 64.736 52.0555 64.736C53.2502 64.736 55.1488 65.9307 57.7515 68.32C60.3968 70.6667 61.7195 72.992 61.7195 75.296V87.648C61.7195 89.824 61.9755 91.5093 62.4875 92.704C62.9995 93.8987 63.8102 94.944 64.9195 95.84L57.8795 100.768C54.8075 98.336 53.2715 94.88 53.2715 90.4V76.192C53.2715 75.4667 52.8875 74.72 52.1195 73.952C51.3515 73.1413 50.6262 72.736 49.9435 72.736C49.3035 72.736 48.0875 73.632 46.2955 75.424V100ZM92.115 65.504V91.744C92.371 93.2373 93.3737 94.56 95.123 95.712L89.363 100.64C88.8083 100.256 88.1257 99.5733 87.315 98.592C86.5043 97.6107 85.8217 96.608 85.267 95.584C81.7257 99.04 79.251 100.768 77.843 100.768C76.819 100.768 75.155 99.6373 72.851 97.376C70.5897 95.1147 69.1817 93.28 68.627 91.872C68.0723 90.464 67.795 87.4347 67.795 82.784C67.795 78.0907 68.0723 75.04 68.627 73.632C69.1817 72.224 70.5897 70.3893 72.851 68.128C75.155 65.8667 76.819 64.736 77.843 64.736C79.3363 64.736 81.747 66.272 85.075 69.344L85.843 65.504H92.115ZM83.219 75.296C82.9203 74.7413 82.3017 74.1867 81.363 73.632C80.467 73.0347 79.7843 72.736 79.315 72.736C78.8457 72.736 78.3337 73.0133 77.779 73.568C77.267 74.1227 76.9257 74.6347 76.755 75.104C76.2003 75.872 75.923 78.432 75.923 82.784C75.923 87.0933 76.2003 89.632 76.755 90.4C76.9257 90.8267 77.267 91.3387 77.779 91.936C78.3337 92.4907 78.8457 92.768 79.315 92.768C79.7843 92.768 80.467 92.4907 81.363 91.936C82.3017 91.3387 82.899 90.8053 83.155 90.336C83.4537 89.8667 83.6243 87.3707 83.667 82.848C83.667 78.3253 83.5177 75.808 83.219 75.296ZM98.6865 73.184C99.0278 72.1173 100.351 70.4533 102.655 68.192C105.001 65.888 106.729 64.736 107.839 64.736C108.948 64.736 110.847 65.888 113.535 68.192V65.056C113.535 62.88 113.279 61.216 112.767 60.064C112.255 58.912 111.444 57.8667 110.335 56.928L117.375 52C120.447 54.432 121.983 57.8667 121.983 62.304V100H115.455L114.687 96.224C111.572 99.2533 109.247 100.768 107.711 100.768C106.687 100.768 105.001 99.6373 102.655 97.376C100.351 95.072 99.0278 93.3867 98.6865 92.32C98.2172 91.2533 97.9825 88.0747 97.9825 82.784C97.9825 77.4507 98.2172 74.2507 98.6865 73.184ZM113.087 75.296C112.788 74.7413 112.169 74.1867 111.231 73.632C110.335 73.0347 109.652 72.736 109.183 72.736C108.713 72.736 108.201 73.0133 107.647 73.568C107.135 74.1227 106.751 74.6987 106.495 75.296C106.239 75.8933 106.111 78.3893 106.111 82.784C106.111 87.136 106.239 89.6107 106.495 90.208C106.751 90.7627 107.135 91.3387 107.647 91.936C108.201 92.4907 108.692 92.768 109.119 92.768C109.588 92.768 110.271 92.4907 111.167 91.936C112.105 91.3387 112.724 90.8267 113.023 90.4C113.279 89.8027 113.449 88.0747 113.535 85.216V82.848C113.535 78.3253 113.385 75.808 113.087 75.296ZM136.163 92.448C136.846 93.088 137.379 93.408 137.763 93.408C138.147 93.408 138.659 93.088 139.299 92.448C139.982 91.808 140.472 91.232 140.771 90.72C141.326 89.7813 141.603 87.136 141.603 82.784C141.603 78.432 141.326 75.7653 140.771 74.784C140.472 74.272 139.982 73.696 139.299 73.056C138.659 72.416 138.147 72.096 137.763 72.096C137.379 72.096 136.846 72.416 136.163 73.056C135.523 73.696 135.054 74.272 134.755 74.784C134.2 75.7227 133.923 78.368 133.923 82.72C133.923 87.072 134.2 89.7387 134.755 90.72C135.054 91.232 135.523 91.808 136.163 92.448ZM143.523 97.632C140.92 99.7227 139 100.768 137.763 100.768C136.526 100.768 134.584 99.7227 131.939 97.632C129.336 95.5413 127.736 93.984 127.139 92.96C126.243 91.3813 125.795 87.968 125.795 82.72C125.795 77.472 126.243 74.08 127.139 72.544C127.736 71.52 129.336 69.9627 131.939 67.872C134.584 65.7813 136.526 64.736 137.763 64.736C139 64.736 140.92 65.7813 143.523 67.872C146.168 69.9627 147.79 71.52 148.387 72.544C149.283 74.08 149.731 77.472 149.731 82.72C149.731 87.968 149.283 91.3813 148.387 92.96C147.79 93.984 146.168 95.5413 143.523 97.632ZM192.201 75.104V80.608C192.201 85.728 191.924 88.9067 191.369 90.144C190.857 91.3813 189.236 93.472 186.505 96.416C183.774 99.3173 181.769 100.768 180.489 100.768C178.953 100.768 176.457 98.3573 173.001 93.536C169.545 98.3573 167.049 100.768 165.513 100.768C164.233 100.768 162.206 99.296 159.433 96.352C156.702 93.408 155.081 91.2747 154.569 89.952C154.057 88.6293 153.801 85.5147 153.801 80.608V65.504H162.249V80.608C162.249 85.088 162.398 87.7333 162.697 88.544C162.996 89.3547 163.444 90.1653 164.041 90.976C164.638 91.744 165.129 92.128 165.513 92.128C165.897 92.128 166.366 91.744 166.921 90.976C167.518 90.1653 167.966 89.376 168.265 88.608C168.606 87.84 168.777 85.9413 168.777 82.912V65.504H177.225V80.608C177.225 85.088 177.374 87.7333 177.673 88.544C177.972 89.3547 178.42 90.1653 179.017 90.976C179.614 91.744 180.105 92.128 180.489 92.128C180.873 92.128 181.342 91.744 181.897 90.976C182.494 90.1653 182.942 89.376 183.241 88.608C183.582 87.84 183.753 85.1733 183.753 80.608V77.856C183.753 74.1867 182.9 71.456 181.193 69.664L187.593 64.736C190.665 67.168 192.201 70.624 192.201 75.104Z" fill="#4D4D4D"/>
<path d="M154.163 40.448C154.846 41.088 155.379 41.408 155.763 41.408C156.147 41.408 156.659 41.088 157.299 40.448C157.982 39.808 158.472 39.232 158.771 38.72C159.326 37.7813 159.603 35.136 159.603 30.784C159.603 26.432 159.326 23.7653 158.771 22.784C158.472 22.272 157.982 21.696 157.299 21.056C156.659 20.416 156.147 20.096 155.763 20.096C155.379 20.096 154.846 20.416 154.163 21.056C153.523 21.696 153.054 22.272 152.755 22.784C152.2 23.7227 151.923 26.368 151.923 30.72C151.923 35.072 152.2 37.7387 152.755 38.72C153.054 39.232 153.523 39.808 154.163 40.448ZM161.523 45.632C158.92 47.7227 157 48.768 155.763 48.768C154.526 48.768 152.584 47.7227 149.939 45.632C147.336 43.5413 145.736 41.984 145.139 40.96C144.243 39.3813 143.795 35.968 143.795 30.72C143.795 25.472 144.243 22.08 145.139 20.544C145.736 19.52 147.336 17.9627 149.939 15.872C152.584 13.7813 154.526 12.736 155.763 12.736C157 12.736 158.92 13.7813 161.523 15.872C164.168 17.9627 165.79 19.52 166.387 20.544C167.283 22.08 167.731 25.472 167.731 30.72C167.731 35.968 167.283 39.3813 166.387 40.96C165.79 41.984 164.168 43.5413 161.523 45.632ZM170.585 22.72V17.92L173.785 17.152C173.785 12.3733 174.02 9.45066 174.489 8.384C174.958 7.31733 176.58 5.65333 179.353 3.392C182.126 1.13066 184.153 -3.8147e-06 185.433 -3.8147e-06C186.756 -3.8147e-06 188.398 0.618664 190.361 1.856C192.324 3.05067 193.796 4.43733 194.777 6.016L188.505 10.24C187.31 8.32 186.286 7.36 185.433 7.36C185.006 7.36 184.516 7.63733 183.961 8.192C183.406 8.74666 182.98 9.32266 182.681 9.92C182.382 10.5173 182.233 12.544 182.233 16H191.321V22.72H182.233V48H173.785V22.72H170.585Z" fill="#6366F1"/>
</g>
<defs>
<filter id="filter0_df_3_9" x="3.64" y="-5.72205e-06" width="198.137" height="112.768" filterUnits="userSpaceOnUse" color-interpolation-filters="sRGB">
<feFlood flood-opacity="0" result="BackgroundImageFix"/>
<feColorMatrix in="SourceAlpha" type="matrix" values="0 0 0 0 0 0 0 0 0 0 0 0 0 0 0 0 0 0 127 0" result="hardAlpha"/>
<feOffset dy="4"/>
<feGaussianBlur stdDeviation="2"/>
<feComposite in2="hardAlpha" operator="out"/>
<feColorMatrix type="matrix" values="0 0 0 0 0 0 0 0 0 0 0 0 0 0 0 0 0 0 0.25 0"/>
<feBlend mode="normal" in2="BackgroundImageFix" result="effect1_dropShadow_3_9"/>
<feBlend mode="normal" in="SourceGraphic" in2="effect1_dropShadow_3_9" result="shape"/>
<feGaussianBlur stdDeviation="2" result="effect2_foregroundBlur_3_9"/>
</filter>
<filter id="filter1_d_3_9" x="0.639999" y="-5.72205e-06" width="198.137" height="108.768" filterUnits="userSpaceOnUse" color-interpolation-filters="sRGB">
<feFlood flood-opacity="0" result="BackgroundImageFix"/>
<feColorMatrix in="SourceAlpha" type="matrix" values="0 0 0 0 0 0 0 0 0 0 0 0 0 0 0 0 0 0 127 0" result="hardAlpha"/>
<feOffset dy="4"/>
<feGaussianBlur stdDeviation="2"/>
<feComposite in2="hardAlpha" operator="out"/>
<feColorMatrix type="matrix" values="0 0 0 0 0 0 0 0 0 0 0 0 0 0 0 0 0 0 0.25 0"/>
<feBlend mode="normal" in2="BackgroundImageFix" result="effect1_dropShadow_3_9"/>
<feBlend mode="normal" in="SourceGraphic" in2="effect1_dropShadow_3_9" result="shape"/>
</filter>
</defs>
</svg>
