<svg width="405" height="61" viewBox="0 0 405 61" fill="none" xmlns="http://www.w3.org/2000/svg">
<g filter="url(#filter0_df_6_5)">
<path d="M19.52 9.952C22.4213 7.60533 24.448 6.432 25.6 6.432C26.7947 6.432 28.672 7.56267 31.232 9.824C33.8347 12.0427 35.456 13.6213 36.096 14.56C36.736 15.456 37.056 16.9493 37.056 19.04C37.056 21.1307 36.736 22.7093 36.096 23.776C35.456 24.8 34.2827 26.1227 32.576 27.744C35.264 29.9627 37.1627 31.8187 38.272 33.312C38.7413 34.08 38.976 35.5307 38.976 37.664C38.976 39.7547 38.7413 41.12 38.272 41.76C37.504 43.424 35.648 45.5573 32.704 48.16C29.76 50.72 27.4347 52 25.728 52H12.48V24.608C12.48 21.152 12.224 18.72 11.712 17.312C11.2427 15.904 10.2187 14.24 8.64 12.32L17.088 6.432C18.112 7.28533 18.9227 8.45867 19.52 9.952ZM21.312 32.544V44.256H25.728C26.2827 44.256 26.9653 43.8293 27.776 42.976C28.5867 42.08 29.1627 41.312 29.504 40.672C29.888 39.9893 30.08 38.624 30.08 36.576C30.08 35.168 29.0133 33.824 26.88 32.544H21.312ZM21.312 20.896V25.44H24.576C25.0453 25.44 25.6213 25.0347 26.304 24.224C27.0293 23.3707 27.52 22.624 27.776 21.984C28.032 21.344 28.16 20.576 28.16 19.68C28.16 18.784 27.7333 17.7813 26.88 16.672C26.0267 15.52 25.2373 14.944 24.512 14.944C23.7867 14.944 22.656 15.2213 21.12 15.776C21.248 17.44 21.312 19.1467 21.312 20.896ZM54.4755 44.448C55.1582 45.088 55.6915 45.408 56.0755 45.408C56.4595 45.408 56.9715 45.088 57.6115 44.448C58.2942 43.808 58.7848 43.232 59.0835 42.72C59.6382 41.7813 59.9155 39.136 59.9155 34.784C59.9155 30.432 59.6382 27.7653 59.0835 26.784C58.7848 26.272 58.2942 25.696 57.6115 25.056C56.9715 24.416 56.4595 24.096 56.0755 24.096C55.6915 24.096 55.1582 24.416 54.4755 25.056C53.8355 25.696 53.3662 26.272 53.0675 26.784C52.5128 27.7227 52.2355 30.368 52.2355 34.72C52.2355 39.072 52.5128 41.7387 53.0675 42.72C53.3662 43.232 53.8355 43.808 54.4755 44.448ZM61.8355 49.632C59.2328 51.7227 57.3128 52.768 56.0755 52.768C54.8382 52.768 52.8968 51.7227 50.2515 49.632C47.6488 47.5413 46.0488 45.984 45.4515 44.96C44.5555 43.3813 44.1075 39.968 44.1075 34.72C44.1075 29.472 44.5555 26.08 45.4515 24.544C46.0488 23.52 47.6488 21.9627 50.2515 19.872C52.8968 17.7813 54.8382 16.736 56.0755 16.736C57.3128 16.736 59.2328 17.7813 61.8355 19.872C64.4808 21.9627 66.1022 23.52 66.6995 24.544C67.5955 26.08 68.0435 29.472 68.0435 34.72C68.0435 39.968 67.5955 43.3813 66.6995 44.96C66.1022 45.984 64.4808 47.5413 61.8355 49.632ZM82.2255 44.448C82.9082 45.088 83.4415 45.408 83.8255 45.408C84.2095 45.408 84.7215 45.088 85.3615 44.448C86.0442 43.808 86.5348 43.232 86.8335 42.72C87.3882 41.7813 87.6655 39.136 87.6655 34.784C87.6655 30.432 87.3882 27.7653 86.8335 26.784C86.5348 26.272 86.0442 25.696 85.3615 25.056C84.7215 24.416 84.2095 24.096 83.8255 24.096C83.4415 24.096 82.9082 24.416 82.2255 25.056C81.5855 25.696 81.1162 26.272 80.8175 26.784C80.2628 27.7227 79.9855 30.368 79.9855 34.72C79.9855 39.072 80.2628 41.7387 80.8175 42.72C81.1162 43.232 81.5855 43.808 82.2255 44.448ZM89.5855 49.632C86.9828 51.7227 85.0628 52.768 83.8255 52.768C82.5882 52.768 80.6468 51.7227 78.0015 49.632C75.3988 47.5413 73.7988 45.984 73.2015 44.96C72.3055 43.3813 71.8575 39.968 71.8575 34.72C71.8575 29.472 72.3055 26.08 73.2015 24.544C73.7988 23.52 75.3988 21.9627 78.0015 19.872C80.6468 17.7813 82.5882 16.736 83.8255 16.736C85.0628 16.736 86.9828 17.7813 89.5855 19.872C92.2308 21.9627 93.8522 23.52 94.4495 24.544C95.3455 26.08 95.7935 29.472 95.7935 34.72C95.7935 39.968 95.3455 43.3813 94.4495 44.96C93.8522 45.984 92.2308 47.5413 89.5855 49.632ZM110.296 52H101.848V17.056C101.848 14.88 101.592 13.216 101.08 12.064C100.568 10.912 99.7568 9.86666 98.6475 8.928L105.688 4C108.76 6.432 110.296 9.86666 110.296 14.304V21.6C113.624 18.3573 115.842 16.736 116.952 16.736C118.061 16.736 120.024 17.952 122.84 20.384C125.656 22.816 127.106 24.7147 127.192 26.08C127.192 27.0613 126.509 28.7253 125.144 31.072C123.821 33.4187 122.541 35.2107 121.304 36.448C124.418 40.288 126.402 43.8507 127.256 47.136L119.192 52.768C118.21 49.312 117.186 46.4533 116.12 44.192C115.053 41.888 113.56 39.7333 111.64 37.728V35.488C112.962 34.5493 114.37 33.184 115.864 31.392C117.357 29.5573 118.21 28.1493 118.424 27.168C117.229 25.5467 116.205 24.736 115.352 24.736C114.882 24.736 114.093 25.2053 112.984 26.144C111.917 27.04 111.021 27.8933 110.296 28.704V52ZM158.163 44.448C158.846 45.088 159.379 45.408 159.763 45.408C160.147 45.408 160.659 45.088 161.299 44.448C161.982 43.808 162.472 43.232 162.771 42.72C163.326 41.7813 163.603 39.136 163.603 34.784C163.603 30.432 163.326 27.7653 162.771 26.784C162.472 26.272 161.982 25.696 161.299 25.056C160.659 24.416 160.147 24.096 159.763 24.096C159.379 24.096 158.846 24.416 158.163 25.056C157.523 25.696 157.054 26.272 156.755 26.784C156.2 27.7227 155.923 30.368 155.923 34.72C155.923 39.072 156.2 41.7387 156.755 42.72C157.054 43.232 157.523 43.808 158.163 44.448ZM165.523 49.632C162.92 51.7227 161 52.768 159.763 52.768C158.526 52.768 156.584 51.7227 153.939 49.632C151.336 47.5413 149.736 45.984 149.139 44.96C148.243 43.3813 147.795 39.968 147.795 34.72C147.795 29.472 148.243 26.08 149.139 24.544C149.736 23.52 151.336 21.9627 153.939 19.872C156.584 17.7813 158.526 16.736 159.763 16.736C161 16.736 162.92 17.7813 165.523 19.872C168.168 21.9627 169.79 23.52 170.387 24.544C171.283 26.08 171.731 29.472 171.731 34.72C171.731 39.968 171.283 43.3813 170.387 44.96C169.79 45.984 168.168 47.5413 165.523 49.632ZM174.585 26.72V21.92L177.785 21.152C177.785 16.3733 178.02 13.4507 178.489 12.384C178.958 11.3173 180.58 9.65333 183.353 7.392C186.126 5.13066 188.153 4 189.433 4C190.756 4 192.398 4.61866 194.361 5.856C196.324 7.05067 197.796 8.43733 198.777 10.016L192.505 14.24C191.31 12.32 190.286 11.36 189.433 11.36C189.006 11.36 188.516 11.6373 187.961 12.192C187.406 12.7467 186.98 13.3227 186.681 13.92C186.382 14.5173 186.233 16.544 186.233 20H195.321V26.72H186.233V52H177.785V26.72H174.585ZM239.267 33.952C239.736 34.72 239.971 36.256 239.971 38.56C239.971 40.8213 239.502 42.7413 238.563 44.32C237.71 45.5573 235.896 47.2853 233.123 49.504C230.35 51.68 228.302 52.768 226.979 52.768C224.632 52.768 221.944 51.552 218.915 49.12C215.886 46.6453 213.966 43.936 213.155 40.992L220.259 36.128C220.942 38.1333 222.03 39.968 223.523 41.632C225.016 43.296 226.062 44.128 226.659 44.128C227.299 44.128 227.96 43.936 228.643 43.552C229.368 43.1253 229.923 42.6987 230.307 42.272C230.862 41.5893 231.139 40.5227 231.139 39.072C231.139 37.6213 230.798 36.7253 230.115 36.384C229.262 35.6587 227.598 34.6987 225.123 33.504C222.691 32.3093 220.43 31.0293 218.339 29.664C216.248 28.256 214.904 26.8907 214.307 25.568C213.752 24.2453 213.475 22.5387 213.475 20.448C213.475 18.3147 213.944 16.4587 214.883 14.88C215.736 13.6427 217.55 11.936 220.323 9.76C223.096 7.54133 225.144 6.432 226.467 6.432C228.814 6.432 231.502 7.66933 234.531 10.144C237.56 12.576 239.48 15.264 240.291 18.208L233.187 23.136C232.504 21.1307 231.416 19.296 229.923 17.632C228.43 15.9253 227.363 15.072 226.723 15.072C226.126 15.072 225.464 15.264 224.739 15.648C224.014 16.032 223.416 16.5227 222.947 17.12C222.52 17.6747 222.307 18.656 222.307 20.064C222.307 21.4293 222.734 22.3467 223.587 22.816C224.27 23.4133 225.827 24.352 228.259 25.632C234.488 29.0453 238.158 31.8187 239.267 33.952ZM254.171 52H245.723V17.056C245.723 14.88 245.467 13.216 244.955 12.064C244.443 10.912 243.632 9.86666 242.523 8.928L249.562 4C252.635 6.432 254.171 9.86666 254.171 14.304V20.256C256.816 17.9093 258.736 16.736 259.931 16.736C261.125 16.736 263.024 17.9307 265.627 20.32C268.272 22.6667 269.595 24.992 269.595 27.296V39.648C269.595 41.824 269.851 43.5093 270.363 44.704C270.875 45.8987 271.685 46.944 272.795 47.84L265.755 52.768C262.683 50.336 261.147 46.88 261.147 42.4V28.192C261.147 27.4667 260.763 26.72 259.995 25.952C259.227 25.1413 258.501 24.736 257.819 24.736C257.179 24.736 255.963 25.632 254.171 27.424V52ZM299.99 17.504V43.744C300.246 45.2373 301.249 46.56 302.998 47.712L297.238 52.64C296.683 52.256 296.001 51.5733 295.19 50.592C294.379 49.6107 293.697 48.608 293.142 47.584C289.601 51.04 287.126 52.768 285.718 52.768C284.694 52.768 283.03 51.6373 280.726 49.376C278.465 47.1147 277.057 45.28 276.502 43.872C275.947 42.464 275.67 39.4347 275.67 34.784C275.67 30.0907 275.947 27.04 276.502 25.632C277.057 24.224 278.465 22.3893 280.726 20.128C283.03 17.8667 284.694 16.736 285.718 16.736C287.211 16.736 289.622 18.272 292.95 21.344L293.718 17.504H299.99ZM291.094 27.296C290.795 26.7413 290.177 26.1867 289.238 25.632C288.342 25.0347 287.659 24.736 287.19 24.736C286.721 24.736 286.209 25.0133 285.654 25.568C285.142 26.1227 284.801 26.6347 284.63 27.104C284.075 27.872 283.798 30.432 283.798 34.784C283.798 39.0933 284.075 41.632 284.63 42.4C284.801 42.8267 285.142 43.3387 285.654 43.936C286.209 44.4907 286.721 44.768 287.19 44.768C287.659 44.768 288.342 44.4907 289.238 43.936C290.177 43.3387 290.774 42.8053 291.03 42.336C291.329 41.8667 291.499 39.3707 291.542 34.848C291.542 30.3253 291.393 27.808 291.094 27.296ZM306.562 25.184C306.903 24.1173 308.226 22.4533 310.53 20.192C312.876 17.888 314.604 16.736 315.714 16.736C316.823 16.736 318.722 17.888 321.41 20.192V17.056C321.41 14.88 321.154 13.216 320.642 12.064C320.13 10.912 319.319 9.86666 318.21 8.928L325.25 4C328.322 6.432 329.858 9.86666 329.858 14.304V52H323.33L322.562 48.224C319.447 51.2533 317.122 52.768 315.586 52.768C314.562 52.768 312.876 51.6373 310.53 49.376C308.226 47.072 306.903 45.3867 306.562 44.32C306.092 43.2533 305.858 40.0747 305.858 34.784C305.858 29.4507 306.092 26.2507 306.562 25.184ZM320.962 27.296C320.663 26.7413 320.044 26.1867 319.106 25.632C318.21 25.0347 317.527 24.736 317.058 24.736C316.588 24.736 316.076 25.0133 315.522 25.568C315.01 26.1227 314.626 26.6987 314.37 27.296C314.114 27.8933 313.986 30.3893 313.986 34.784C313.986 39.136 314.114 41.6107 314.37 42.208C314.626 42.7627 315.01 43.3387 315.522 43.936C316.076 44.4907 316.567 44.768 316.994 44.768C317.463 44.768 318.146 44.4907 319.042 43.936C319.98 43.3387 320.599 42.8267 320.898 42.4C321.154 41.8027 321.324 40.0747 321.41 37.216V34.848C321.41 30.3253 321.26 27.808 320.962 27.296ZM344.038 44.448C344.721 45.088 345.254 45.408 345.638 45.408C346.022 45.408 346.534 45.088 347.174 44.448C347.857 43.808 348.347 43.232 348.646 42.72C349.201 41.7813 349.478 39.136 349.478 34.784C349.478 30.432 349.201 27.7653 348.646 26.784C348.347 26.272 347.857 25.696 347.174 25.056C346.534 24.416 346.022 24.096 345.638 24.096C345.254 24.096 344.721 24.416 344.038 25.056C343.398 25.696 342.929 26.272 342.63 26.784C342.075 27.7227 341.798 30.368 341.798 34.72C341.798 39.072 342.075 41.7387 342.63 42.72C342.929 43.232 343.398 43.808 344.038 44.448ZM351.398 49.632C348.795 51.7227 346.875 52.768 345.638 52.768C344.401 52.768 342.459 51.7227 339.814 49.632C337.211 47.5413 335.611 45.984 335.014 44.96C334.118 43.3813 333.67 39.968 333.67 34.72C333.67 29.472 334.118 26.08 335.014 24.544C335.611 23.52 337.211 21.9627 339.814 19.872C342.459 17.7813 344.401 16.736 345.638 16.736C346.875 16.736 348.795 17.7813 351.398 19.872C354.043 21.9627 355.665 23.52 356.262 24.544C357.158 26.08 357.606 29.472 357.606 34.72C357.606 39.968 357.158 43.3813 356.262 44.96C355.665 45.984 354.043 47.5413 351.398 49.632ZM400.076 27.104V32.608C400.076 37.728 399.799 40.9067 399.244 42.144C398.732 43.3813 397.111 45.472 394.38 48.416C391.649 51.3173 389.644 52.768 388.364 52.768C386.828 52.768 384.332 50.3573 380.876 45.536C377.42 50.3573 374.924 52.768 373.388 52.768C372.108 52.768 370.081 51.296 367.308 48.352C364.577 45.408 362.956 43.2747 362.444 41.952C361.932 40.6293 361.676 37.5147 361.676 32.608V17.504H370.124V32.608C370.124 37.088 370.273 39.7333 370.572 40.544C370.871 41.3547 371.319 42.1653 371.916 42.976C372.513 43.744 373.004 44.128 373.388 44.128C373.772 44.128 374.241 43.744 374.796 42.976C375.393 42.1653 375.841 41.376 376.14 40.608C376.481 39.84 376.652 37.9413 376.652 34.912V17.504H385.1V32.608C385.1 37.088 385.249 39.7333 385.548 40.544C385.847 41.3547 386.295 42.1653 386.892 42.976C387.489 43.744 387.98 44.128 388.364 44.128C388.748 44.128 389.217 43.744 389.772 42.976C390.369 42.1653 390.817 41.376 391.116 40.608C391.457 39.84 391.628 37.1733 391.628 32.608V29.856C391.628 26.1867 390.775 23.456 389.068 21.664L395.468 16.736C398.54 19.168 400.076 22.624 400.076 27.104Z" fill="#6366F1"/>
</g>
<g filter="url(#filter1_d_6_5)">
<path d="M15.52 5.952C18.4213 3.60533 20.448 2.432 21.6 2.432C22.7947 2.432 24.672 3.56267 27.232 5.824C29.8347 8.04266 31.456 9.62133 32.096 10.56C32.736 11.456 33.056 12.9493 33.056 15.04C33.056 17.1307 32.736 18.7093 32.096 19.776C31.456 20.8 30.2827 22.1227 28.576 23.744C31.264 25.9627 33.1627 27.8187 34.272 29.312C34.7413 30.08 34.976 31.5307 34.976 33.664C34.976 35.7547 34.7413 37.12 34.272 37.76C33.504 39.424 31.648 41.5573 28.704 44.16C25.76 46.72 23.4347 48 21.728 48H8.48V20.608C8.48 17.152 8.224 14.72 7.712 13.312C7.24267 11.904 6.21867 10.24 4.64 8.32L13.088 2.432C14.112 3.28533 14.9227 4.45867 15.52 5.952ZM17.312 28.544V40.256H21.728C22.2827 40.256 22.9653 39.8293 23.776 38.976C24.5867 38.08 25.1627 37.312 25.504 36.672C25.888 35.9893 26.08 34.624 26.08 32.576C26.08 31.168 25.0133 29.824 22.88 28.544H17.312ZM17.312 16.896V21.44H20.576C21.0453 21.44 21.6213 21.0347 22.304 20.224C23.0293 19.3707 23.52 18.624 23.776 17.984C24.032 17.344 24.16 16.576 24.16 15.68C24.16 14.784 23.7333 13.7813 22.88 12.672C22.0267 11.52 21.2373 10.944 20.512 10.944C19.7867 10.944 18.656 11.2213 17.12 11.776C17.248 13.44 17.312 15.1467 17.312 16.896ZM50.4755 40.448C51.1582 41.088 51.6915 41.408 52.0755 41.408C52.4595 41.408 52.9715 41.088 53.6115 40.448C54.2942 39.808 54.7848 39.232 55.0835 38.72C55.6382 37.7813 55.9155 35.136 55.9155 30.784C55.9155 26.432 55.6382 23.7653 55.0835 22.784C54.7848 22.272 54.2942 21.696 53.6115 21.056C52.9715 20.416 52.4595 20.096 52.0755 20.096C51.6915 20.096 51.1582 20.416 50.4755 21.056C49.8355 21.696 49.3662 22.272 49.0675 22.784C48.5128 23.7227 48.2355 26.368 48.2355 30.72C48.2355 35.072 48.5128 37.7387 49.0675 38.72C49.3662 39.232 49.8355 39.808 50.4755 40.448ZM57.8355 45.632C55.2328 47.7227 53.3128 48.768 52.0755 48.768C50.8382 48.768 48.8968 47.7227 46.2515 45.632C43.6488 43.5413 42.0488 41.984 41.4515 40.96C40.5555 39.3813 40.1075 35.968 40.1075 30.72C40.1075 25.472 40.5555 22.08 41.4515 20.544C42.0488 19.52 43.6488 17.9627 46.2515 15.872C48.8968 13.7813 50.8382 12.736 52.0755 12.736C53.3128 12.736 55.2328 13.7813 57.8355 15.872C60.4808 17.9627 62.1022 19.52 62.6995 20.544C63.5955 22.08 64.0435 25.472 64.0435 30.72C64.0435 35.968 63.5955 39.3813 62.6995 40.96C62.1022 41.984 60.4808 43.5413 57.8355 45.632ZM78.2255 40.448C78.9082 41.088 79.4415 41.408 79.8255 41.408C80.2095 41.408 80.7215 41.088 81.3615 40.448C82.0442 39.808 82.5348 39.232 82.8335 38.72C83.3882 37.7813 83.6655 35.136 83.6655 30.784C83.6655 26.432 83.3882 23.7653 82.8335 22.784C82.5348 22.272 82.0442 21.696 81.3615 21.056C80.7215 20.416 80.2095 20.096 79.8255 20.096C79.4415 20.096 78.9082 20.416 78.2255 21.056C77.5855 21.696 77.1162 22.272 76.8175 22.784C76.2628 23.7227 75.9855 26.368 75.9855 30.72C75.9855 35.072 76.2628 37.7387 76.8175 38.72C77.1162 39.232 77.5855 39.808 78.2255 40.448ZM85.5855 45.632C82.9828 47.7227 81.0628 48.768 79.8255 48.768C78.5882 48.768 76.6468 47.7227 74.0015 45.632C71.3988 43.5413 69.7988 41.984 69.2015 40.96C68.3055 39.3813 67.8575 35.968 67.8575 30.72C67.8575 25.472 68.3055 22.08 69.2015 20.544C69.7988 19.52 71.3988 17.9627 74.0015 15.872C76.6468 13.7813 78.5882 12.736 79.8255 12.736C81.0628 12.736 82.9828 13.7813 85.5855 15.872C88.2308 17.9627 89.8522 19.52 90.4495 20.544C91.3455 22.08 91.7935 25.472 91.7935 30.72C91.7935 35.968 91.3455 39.3813 90.4495 40.96C89.8522 41.984 88.2308 43.5413 85.5855 45.632ZM106.296 48H97.8475V13.056C97.8475 10.88 97.5915 9.216 97.0795 8.064C96.5675 6.912 95.7568 5.86666 94.6475 4.928L101.688 -3.8147e-06C104.76 2.432 106.296 5.86666 106.296 10.304V17.6C109.624 14.3573 111.842 12.736 112.952 12.736C114.061 12.736 116.024 13.952 118.84 16.384C121.656 18.816 123.106 20.7147 123.192 22.08C123.192 23.0613 122.509 24.7253 121.144 27.072C119.821 29.4187 118.541 31.2107 117.304 32.448C120.418 36.288 122.402 39.8507 123.256 43.136L115.192 48.768C114.21 45.312 113.186 42.4533 112.12 40.192C111.053 37.888 109.56 35.7333 107.64 33.728V31.488C108.962 30.5493 110.37 29.184 111.864 27.392C113.357 25.5573 114.21 24.1493 114.424 23.168C113.229 21.5467 112.205 20.736 111.352 20.736C110.882 20.736 110.093 21.2053 108.984 22.144C107.917 23.04 107.021 23.8933 106.296 24.704V48ZM235.267 29.952C235.736 30.72 235.971 32.256 235.971 34.56C235.971 36.8213 235.502 38.7413 234.563 40.32C233.71 41.5573 231.896 43.2853 229.123 45.504C226.35 47.68 224.302 48.768 222.979 48.768C220.632 48.768 217.944 47.552 214.915 45.12C211.886 42.6453 209.966 39.936 209.155 36.992L216.259 32.128C216.942 34.1333 218.03 35.968 219.523 37.632C221.016 39.296 222.062 40.128 222.659 40.128C223.299 40.128 223.96 39.936 224.643 39.552C225.368 39.1253 225.923 38.6987 226.307 38.272C226.862 37.5893 227.139 36.5227 227.139 35.072C227.139 33.6213 226.798 32.7253 226.115 32.384C225.262 31.6587 223.598 30.6987 221.123 29.504C218.691 28.3093 216.43 27.0293 214.339 25.664C212.248 24.256 210.904 22.8907 210.307 21.568C209.752 20.2453 209.475 18.5387 209.475 16.448C209.475 14.3147 209.944 12.4587 210.883 10.88C211.736 9.64266 213.55 7.936 216.323 5.76C219.096 3.54133 221.144 2.432 222.467 2.432C224.814 2.432 227.502 3.66933 230.531 6.144C233.56 8.576 235.48 11.264 236.291 14.208L229.187 19.136C228.504 17.1307 227.416 15.296 225.923 13.632C224.43 11.9253 223.363 11.072 222.723 11.072C222.126 11.072 221.464 11.264 220.739 11.648C220.014 12.032 219.416 12.5227 218.947 13.12C218.52 13.6747 218.307 14.656 218.307 16.064C218.307 17.4293 218.734 18.3467 219.587 18.816C220.27 19.4133 221.827 20.352 224.259 21.632C230.488 25.0453 234.158 27.8187 235.267 29.952ZM250.171 48H241.723V13.056C241.723 10.88 241.467 9.216 240.955 8.064C240.443 6.912 239.632 5.86666 238.523 4.928L245.562 -3.8147e-06C248.635 2.432 250.171 5.86666 250.171 10.304V16.256C252.816 13.9093 254.736 12.736 255.931 12.736C257.125 12.736 259.024 13.9307 261.627 16.32C264.272 18.6667 265.595 20.992 265.595 23.296V35.648C265.595 37.824 265.851 39.5093 266.363 40.704C266.875 41.8987 267.685 42.944 268.795 43.84L261.755 48.768C258.683 46.336 257.147 42.88 257.147 38.4V24.192C257.147 23.4667 256.763 22.72 255.995 21.952C255.227 21.1413 254.501 20.736 253.819 20.736C253.179 20.736 251.963 21.632 250.171 23.424V48ZM295.99 13.504V39.744C296.246 41.2373 297.249 42.56 298.998 43.712L293.238 48.64C292.683 48.256 292.001 47.5733 291.19 46.592C290.379 45.6107 289.697 44.608 289.142 43.584C285.601 47.04 283.126 48.768 281.718 48.768C280.694 48.768 279.03 47.6373 276.726 45.376C274.465 43.1147 273.057 41.28 272.502 39.872C271.947 38.464 271.67 35.4347 271.67 30.784C271.67 26.0907 271.947 23.04 272.502 21.632C273.057 20.224 274.465 18.3893 276.726 16.128C279.03 13.8667 280.694 12.736 281.718 12.736C283.211 12.736 285.622 14.272 288.95 17.344L289.718 13.504H295.99ZM287.094 23.296C286.795 22.7413 286.177 22.1867 285.238 21.632C284.342 21.0347 283.659 20.736 283.19 20.736C282.721 20.736 282.209 21.0133 281.654 21.568C281.142 22.1227 280.801 22.6347 280.63 23.104C280.075 23.872 279.798 26.432 279.798 30.784C279.798 35.0933 280.075 37.632 280.63 38.4C280.801 38.8267 281.142 39.3387 281.654 39.936C282.209 40.4907 282.721 40.768 283.19 40.768C283.659 40.768 284.342 40.4907 285.238 39.936C286.177 39.3387 286.774 38.8053 287.03 38.336C287.329 37.8667 287.499 35.3707 287.542 30.848C287.542 26.3253 287.393 23.808 287.094 23.296ZM302.562 21.184C302.903 20.1173 304.226 18.4533 306.53 16.192C308.876 13.888 310.604 12.736 311.714 12.736C312.823 12.736 314.722 13.888 317.41 16.192V13.056C317.41 10.88 317.154 9.216 316.642 8.064C316.13 6.912 315.319 5.86666 314.21 4.928L321.25 -3.8147e-06C324.322 2.432 325.858 5.86666 325.858 10.304V48H319.33L318.562 44.224C315.447 47.2533 313.122 48.768 311.586 48.768C310.562 48.768 308.876 47.6373 306.53 45.376C304.226 43.072 302.903 41.3867 302.562 40.32C302.092 39.2533 301.858 36.0747 301.858 30.784C301.858 25.4507 302.092 22.2507 302.562 21.184ZM316.962 23.296C316.663 22.7413 316.044 22.1867 315.106 21.632C314.21 21.0347 313.527 20.736 313.058 20.736C312.588 20.736 312.076 21.0133 311.522 21.568C311.01 22.1227 310.626 22.6987 310.37 23.296C310.114 23.8933 309.986 26.3893 309.986 30.784C309.986 35.136 310.114 37.6107 310.37 38.208C310.626 38.7627 311.01 39.3387 311.522 39.936C312.076 40.4907 312.567 40.768 312.994 40.768C313.463 40.768 314.146 40.4907 315.042 39.936C315.98 39.3387 316.599 38.8267 316.898 38.4C317.154 37.8027 317.324 36.0747 317.41 33.216V30.848C317.41 26.3253 317.26 23.808 316.962 23.296ZM340.038 40.448C340.721 41.088 341.254 41.408 341.638 41.408C342.022 41.408 342.534 41.088 343.174 40.448C343.857 39.808 344.347 39.232 344.646 38.72C345.201 37.7813 345.478 35.136 345.478 30.784C345.478 26.432 345.201 23.7653 344.646 22.784C344.347 22.272 343.857 21.696 343.174 21.056C342.534 20.416 342.022 20.096 341.638 20.096C341.254 20.096 340.721 20.416 340.038 21.056C339.398 21.696 338.929 22.272 338.63 22.784C338.075 23.7227 337.798 26.368 337.798 30.72C337.798 35.072 338.075 37.7387 338.63 38.72C338.929 39.232 339.398 39.808 340.038 40.448ZM347.398 45.632C344.795 47.7227 342.875 48.768 341.638 48.768C340.401 48.768 338.459 47.7227 335.814 45.632C333.211 43.5413 331.611 41.984 331.014 40.96C330.118 39.3813 329.67 35.968 329.67 30.72C329.67 25.472 330.118 22.08 331.014 20.544C331.611 19.52 333.211 17.9627 335.814 15.872C338.459 13.7813 340.401 12.736 341.638 12.736C342.875 12.736 344.795 13.7813 347.398 15.872C350.043 17.9627 351.665 19.52 352.262 20.544C353.158 22.08 353.606 25.472 353.606 30.72C353.606 35.968 353.158 39.3813 352.262 40.96C351.665 41.984 350.043 43.5413 347.398 45.632ZM396.076 23.104V28.608C396.076 33.728 395.799 36.9067 395.244 38.144C394.732 39.3813 393.111 41.472 390.38 44.416C387.649 47.3173 385.644 48.768 384.364 48.768C382.828 48.768 380.332 46.3573 376.876 41.536C373.42 46.3573 370.924 48.768 369.388 48.768C368.108 48.768 366.081 47.296 363.308 44.352C360.577 41.408 358.956 39.2747 358.444 37.952C357.932 36.6293 357.676 33.5147 357.676 28.608V13.504H366.124V28.608C366.124 33.088 366.273 35.7333 366.572 36.544C366.871 37.3547 367.319 38.1653 367.916 38.976C368.513 39.744 369.004 40.128 369.388 40.128C369.772 40.128 370.241 39.744 370.796 38.976C371.393 38.1653 371.841 37.376 372.14 36.608C372.481 35.84 372.652 33.9413 372.652 30.912V13.504H381.1V28.608C381.1 33.088 381.249 35.7333 381.548 36.544C381.847 37.3547 382.295 38.1653 382.892 38.976C383.489 39.744 383.98 40.128 384.364 40.128C384.748 40.128 385.217 39.744 385.772 38.976C386.369 38.1653 386.817 37.376 387.116 36.608C387.457 35.84 387.628 33.1733 387.628 28.608V25.856C387.628 22.1867 386.775 19.456 385.068 17.664L391.468 12.736C394.54 15.168 396.076 18.624 396.076 23.104Z" fill="white"/>
<path d="M154.163 40.448C154.846 41.088 155.379 41.408 155.763 41.408C156.147 41.408 156.659 41.088 157.299 40.448C157.982 39.808 158.472 39.232 158.771 38.72C159.326 37.7813 159.603 35.136 159.603 30.784C159.603 26.432 159.326 23.7653 158.771 22.784C158.472 22.272 157.982 21.696 157.299 21.056C156.659 20.416 156.147 20.096 155.763 20.096C155.379 20.096 154.846 20.416 154.163 21.056C153.523 21.696 153.054 22.272 152.755 22.784C152.2 23.7227 151.923 26.368 151.923 30.72C151.923 35.072 152.2 37.7387 152.755 38.72C153.054 39.232 153.523 39.808 154.163 40.448ZM161.523 45.632C158.92 47.7227 157 48.768 155.763 48.768C154.526 48.768 152.584 47.7227 149.939 45.632C147.336 43.5413 145.736 41.984 145.139 40.96C144.243 39.3813 143.795 35.968 143.795 30.72C143.795 25.472 144.243 22.08 145.139 20.544C145.736 19.52 147.336 17.9627 149.939 15.872C152.584 13.7813 154.526 12.736 155.763 12.736C157 12.736 158.92 13.7813 161.523 15.872C164.168 17.9627 165.79 19.52 166.387 20.544C167.283 22.08 167.731 25.472 167.731 30.72C167.731 35.968 167.283 39.3813 166.387 40.96C165.79 41.984 164.168 43.5413 161.523 45.632ZM170.585 22.72V17.92L173.785 17.152C173.785 12.3733 174.02 9.45066 174.489 8.384C174.958 7.31733 176.58 5.65333 179.353 3.392C182.126 1.13066 184.153 -3.8147e-06 185.433 -3.8147e-06C186.756 -3.8147e-06 188.398 0.618664 190.361 1.856C192.324 3.05067 193.796 4.43733 194.777 6.016L188.505 10.24C187.31 8.32 186.286 7.36 185.433 7.36C185.006 7.36 184.516 7.63733 183.961 8.192C183.406 8.74666 182.98 9.32266 182.681 9.92C182.382 10.5173 182.233 12.544 182.233 16H191.321V22.72H182.233V48H173.785V22.72H170.585Z" fill="#6366F1"/>
</g>
<defs>
<filter id="filter0_df_6_5" x="4.64001" y="0" width="399.436" height="60.768" filterUnits="userSpaceOnUse" color-interpolation-filters="sRGB">
<feFlood flood-opacity="0" result="BackgroundImageFix"/>
<feColorMatrix in="SourceAlpha" type="matrix" values="0 0 0 0 0 0 0 0 0 0 0 0 0 0 0 0 0 0 127 0" result="hardAlpha"/>
<feOffset dy="4"/>
<feGaussianBlur stdDeviation="2"/>
<feComposite in2="hardAlpha" operator="out"/>
<feColorMatrix type="matrix" values="0 0 0 0 0 0 0 0 0 0 0 0 0 0 0 0 0 0 0.25 0"/>
<feBlend mode="normal" in2="BackgroundImageFix" result="effect1_dropShadow_6_5"/>
<feBlend mode="normal" in="SourceGraphic" in2="effect1_dropShadow_6_5" result="shape"/>
<feGaussianBlur stdDeviation="2" result="effect2_foregroundBlur_6_5"/>
</filter>
<filter id="filter1_d_6_5" x="0.640015" y="0" width="399.436" height="56.768" filterUnits="userSpaceOnUse" color-interpolation-filters="sRGB">
<feFlood flood-opacity="0" result="BackgroundImageFix"/>
<feColorMatrix in="SourceAlpha" type="matrix" values="0 0 0 0 0 0 0 0 0 0 0 0 0 0 0 0 0 0 127 0" result="hardAlpha"/>
<feOffset dy="4"/>
<feGaussianBlur stdDeviation="2"/>
<feComposite in2="hardAlpha" operator="out"/>
<feColorMatrix type="matrix" values="0 0 0 0 0 0 0 0 0 0 0 0 0 0 0 0 0 0 0.25 0"/>
<feBlend mode="normal" in2="BackgroundImageFix" result="effect1_dropShadow_6_5"/>
<feBlend mode="normal" in="SourceGraphic" in2="effect1_dropShadow_6_5" result="shape"/>
</filter>
</defs>
</svg>
